<svg width="335" height="186" viewBox="0 0 335 186" fill="none" xmlns="http://www.w3.org/2000/svg">
<g filter="url(#filter0_bd_106_1643)">
<mask id="path-1-outside-1_106_1643" maskUnits="userSpaceOnUse" x="165" y="11" width="155" height="96" fill="black">
<rect fill="white" x="165" y="11" width="155" height="96"/>
<path fill-rule="evenodd" clip-rule="evenodd" d="M275.972 55.1921C275.972 56.6649 275.898 58.1201 275.753 59.554C280.232 55.6034 286.082 53.2119 292.483 53.2119C306.576 53.2119 318 64.8051 318 79.106C318 93.4068 306.576 105 292.483 105H193.287C193.281 105 193.274 105 193.267 105C193.261 105 193.254 105 193.247 105H193.117V105C178.679 104.918 167 93.0151 167 78.3444C167 63.7276 178.594 51.8587 192.958 51.6906C194.712 30.0267 212.594 13 234.395 13C257.357 13 275.972 31.89 275.972 55.1921Z"/>
</mask>
<path fill-rule="evenodd" clip-rule="evenodd" d="M275.972 55.1921C275.972 56.6649 275.898 58.1201 275.753 59.554C280.232 55.6034 286.082 53.2119 292.483 53.2119C306.576 53.2119 318 64.8051 318 79.106C318 93.4068 306.576 105 292.483 105H193.287C193.281 105 193.274 105 193.267 105C193.261 105 193.254 105 193.247 105H193.117V105C178.679 104.918 167 93.0151 167 78.3444C167 63.7276 178.594 51.8587 192.958 51.6906C194.712 30.0267 212.594 13 234.395 13C257.357 13 275.972 31.89 275.972 55.1921Z" fill="url(#paint0_linear_106_1643)" shape-rendering="crispEdges"/>
<path d="M275.753 59.554L273.763 59.3526L273.249 64.4287L277.076 61.054L275.753 59.554ZM193.117 105H191.117V107H193.117V105ZM193.117 105H195.117V103.011L193.129 103L193.117 105ZM192.958 51.6906L192.982 53.6904L194.805 53.6691L194.952 51.8519L192.958 51.6906ZM277.742 59.7554C277.894 58.2547 277.972 56.7322 277.972 55.1921H273.972C273.972 56.5975 273.901 57.9855 273.763 59.3526L277.742 59.7554ZM292.483 51.2119C285.574 51.2119 279.258 53.7959 274.43 58.054L277.076 61.054C281.206 57.411 286.591 55.2119 292.483 55.2119V51.2119ZM320 79.106C320 63.7283 307.708 51.2119 292.483 51.2119V55.2119C305.444 55.2119 316 65.8819 316 79.106H320ZM292.483 107C307.708 107 320 94.4836 320 79.106H316C316 92.33 305.444 103 292.483 103V107ZM292.483 103H193.287V107H292.483V103ZM193.267 107C193.271 107 193.275 107 193.279 107C193.282 107 193.285 107 193.287 107V103C193.283 103 193.28 103 193.276 103C193.273 103 193.27 103 193.267 103V107ZM193.247 107C193.25 107 193.253 107 193.256 107C193.259 107 193.263 107 193.267 107V103C193.265 103 193.262 103 193.258 103C193.255 103 193.251 103 193.247 103V107ZM193.247 103H193.117V107H193.247V103ZM195.117 105V105H191.117V105H195.117ZM165 78.3444C165 94.0883 177.541 106.911 193.106 107L193.129 103C179.817 102.924 169 91.9418 169 78.3444H165ZM192.935 49.6907C177.449 49.8719 165 62.6582 165 78.3444H169C169 64.797 179.738 53.8454 192.982 53.6904L192.935 49.6907ZM234.395 11C211.519 11 192.8 28.8598 190.965 51.5292L194.952 51.8519C196.624 31.1936 213.669 15 234.395 15V11ZM277.972 55.1921C277.972 30.8132 258.489 11 234.395 11V15C256.225 15 273.972 32.9668 273.972 55.1921H277.972Z" fill="url(#paint1_linear_106_1643)" mask="url(#path-1-outside-1_106_1643)"/>
</g>
<g filter="url(#filter1_bd_106_1643)">
<mask id="path-3-outside-2_106_1643" maskUnits="userSpaceOnUse" x="15" y="12" width="255" height="155" fill="black">
<rect fill="white" x="15" y="12" width="255" height="155"/>
<path fill-rule="evenodd" clip-rule="evenodd" d="M197.882 83.0141C197.882 85.4233 197.758 87.8036 197.517 90.149C204.953 83.6871 214.664 79.7752 225.288 79.7752C248.68 79.7752 267.643 98.7383 267.643 122.13C267.643 145.523 248.68 164.486 225.288 164.486H60.6379C60.6256 164.486 60.6133 164.486 60.601 164.486C60.5887 164.486 60.5764 164.486 60.5641 164.486H60.3518V164.485C36.3863 164.351 17 144.882 17 120.885C17 96.9758 36.2441 77.5617 60.0878 77.2867C62.999 41.8508 92.6809 14 128.868 14C166.983 14 197.882 44.8987 197.882 83.0141Z"/>
</mask>
<path fill-rule="evenodd" clip-rule="evenodd" d="M197.882 83.0141C197.882 85.4233 197.758 87.8036 197.517 90.149C204.953 83.6871 214.664 79.7752 225.288 79.7752C248.68 79.7752 267.643 98.7383 267.643 122.13C267.643 145.523 248.68 164.486 225.288 164.486H60.6379C60.6256 164.486 60.6133 164.486 60.601 164.486C60.5887 164.486 60.5764 164.486 60.5641 164.486H60.3518V164.485C36.3863 164.351 17 144.882 17 120.885C17 96.9758 36.2441 77.5617 60.0878 77.2867C62.999 41.8508 92.6809 14 128.868 14C166.983 14 197.882 44.8987 197.882 83.0141Z" fill="url(#paint2_linear_106_1643)" shape-rendering="crispEdges"/>
<path d="M197.517 90.149L195.528 89.9447L195.011 94.9771L198.829 91.6586L197.517 90.149ZM60.3518 164.486H58.3518V166.486H60.3518V164.486ZM60.3518 164.485H62.3518V162.496L60.363 162.485L60.3518 164.485ZM60.0878 77.2867L60.1109 79.2866L61.932 79.2656L62.0811 77.4504L60.0878 77.2867ZM199.507 90.3534C199.755 87.9401 199.882 85.4916 199.882 83.0141H195.882C195.882 85.3549 195.762 87.667 195.528 89.9447L199.507 90.3534ZM225.288 77.7752C214.163 77.7752 203.991 81.8733 196.206 88.6395L198.829 91.6586C205.915 85.5008 215.164 81.7752 225.288 81.7752V77.7752ZM269.643 122.13C269.643 97.6337 249.785 77.7752 225.288 77.7752V81.7752C247.576 81.7752 265.643 99.8429 265.643 122.13H269.643ZM225.288 166.486C249.785 166.486 269.643 146.627 269.643 122.13H265.643C265.643 144.418 247.576 162.486 225.288 162.486V166.486ZM225.288 162.486H60.6379V166.486H225.288V162.486ZM60.601 166.486C60.6079 166.486 60.6146 166.486 60.6207 166.486C60.6269 166.486 60.6324 166.486 60.6379 166.486V162.486C60.631 162.486 60.6242 162.486 60.6182 162.486C60.6119 162.486 60.6064 162.486 60.601 162.486V166.486ZM60.5641 166.486C60.5695 166.486 60.5751 166.486 60.5813 166.486C60.5874 166.486 60.5941 166.486 60.601 166.486V162.486C60.5956 162.486 60.59 162.486 60.5838 162.486C60.5777 162.486 60.571 162.486 60.5641 162.486V166.486ZM60.5641 162.486H60.3518V166.486H60.5641V162.486ZM62.3518 164.486V164.485H58.3518V164.486H62.3518ZM15 120.885C15 145.983 35.2756 166.345 60.3407 166.485L60.363 162.485C37.4971 162.357 19 143.781 19 120.885H15ZM60.0647 75.2868C35.1268 75.5744 15 95.879 15 120.885H19C19 98.0727 37.3614 79.5489 60.1109 79.2866L60.0647 75.2868ZM128.868 12C91.6312 12 61.0902 40.6581 58.0945 77.1229L62.0811 77.4504C64.9077 43.0436 93.7306 16 128.868 16V12ZM199.882 83.0141C199.882 43.7941 168.088 12 128.868 12V16C165.879 16 195.882 46.0033 195.882 83.0141H199.882Z" fill="url(#paint3_linear_106_1643)" mask="url(#path-3-outside-2_106_1643)"/>
</g>
<defs>
<filter id="filter0_bd_106_1643" x="150" y="0" width="185" height="126" filterUnits="userSpaceOnUse" color-interpolation-filters="sRGB">
<feFlood flood-opacity="0" result="BackgroundImageFix"/>
<feGaussianBlur in="BackgroundImageFix" stdDeviation="5"/>
<feComposite in2="SourceAlpha" operator="in" result="effect1_backgroundBlur_106_1643"/>
<feColorMatrix in="SourceAlpha" type="matrix" values="0 0 0 0 0 0 0 0 0 0 0 0 0 0 0 0 0 0 127 0" result="hardAlpha"/>
<feOffset dy="4"/>
<feGaussianBlur stdDeviation="7.5"/>
<feComposite in2="hardAlpha" operator="out"/>
<feColorMatrix type="matrix" values="0 0 0 0 0 0 0 0 0 0 0 0 0 0 0 0 0 0 0.1 0"/>
<feBlend mode="normal" in2="effect1_backgroundBlur_106_1643" result="effect2_dropShadow_106_1643"/>
<feBlend mode="normal" in="SourceGraphic" in2="effect2_dropShadow_106_1643" result="shape"/>
</filter>
<filter id="filter1_bd_106_1643" x="0" y="1" width="284.643" height="184.486" filterUnits="userSpaceOnUse" color-interpolation-filters="sRGB">
<feFlood flood-opacity="0" result="BackgroundImageFix"/>
<feGaussianBlur in="BackgroundImageFix" stdDeviation="5"/>
<feComposite in2="SourceAlpha" operator="in" result="effect1_backgroundBlur_106_1643"/>
<feColorMatrix in="SourceAlpha" type="matrix" values="0 0 0 0 0 0 0 0 0 0 0 0 0 0 0 0 0 0 127 0" result="hardAlpha"/>
<feOffset dy="4"/>
<feGaussianBlur stdDeviation="7.5"/>
<feComposite in2="hardAlpha" operator="out"/>
<feColorMatrix type="matrix" values="0 0 0 0 0 0 0 0 0 0 0 0 0 0 0 0 0 0 0.1 0"/>
<feBlend mode="normal" in2="effect1_backgroundBlur_106_1643" result="effect2_dropShadow_106_1643"/>
<feBlend mode="normal" in="SourceGraphic" in2="effect2_dropShadow_106_1643" result="shape"/>
</filter>
<linearGradient id="paint0_linear_106_1643" x1="214.91" y1="22.476" x2="263.832" y2="101.006" gradientUnits="userSpaceOnUse">
<stop stop-color="#52ACFF"/>
<stop offset="1" stop-color="#052D93" stop-opacity="0.71"/>
</linearGradient>
<linearGradient id="paint1_linear_106_1643" x1="263.708" y1="135.576" x2="215.478" y2="1.52437" gradientUnits="userSpaceOnUse">
<stop stop-color="#0066FF"/>
<stop offset="1" stop-color="#00378A" stop-opacity="0.34"/>
</linearGradient>
<linearGradient id="paint2_linear_106_1643" x1="96.5248" y1="29.5" x2="176.025" y2="159" gradientUnits="userSpaceOnUse">
<stop stop-color="#52ACFF"/>
<stop offset="1" stop-color="#052D93" stop-opacity="0.71"/>
</linearGradient>
<linearGradient id="paint3_linear_106_1643" x1="177.525" y1="214.5" x2="99.5247" y2="-5.49999" gradientUnits="userSpaceOnUse">
<stop stop-color="#0066FF"/>
<stop offset="1" stop-color="#00378A" stop-opacity="0.34"/>
</linearGradient>
</defs>
</svg>
