<svg width="285" height="258" viewBox="0 0 285 258" fill="none" xmlns="http://www.w3.org/2000/svg">
<path fill-rule="evenodd" clip-rule="evenodd" d="M186.461 120C185.628 120 184.952 120.675 184.952 121.509V126.241L181.509 121.893C180.992 121.24 180.043 121.129 179.39 121.647C178.737 122.164 178.627 123.113 179.144 123.766L184.952 131.102V133.873L181.51 129.525C180.992 128.872 180.043 128.762 179.39 129.279C178.737 129.796 178.627 130.745 179.144 131.398L184.952 138.734V151.763L175.297 142.108L174.216 132.813C174.12 131.985 173.371 131.392 172.544 131.489C171.716 131.585 171.123 132.334 171.219 133.161L171.859 138.67L169.9 136.71L168.819 127.416C168.723 126.588 167.974 125.995 167.147 126.092C166.319 126.188 165.726 126.937 165.822 127.764L166.462 133.273L163.559 130.37C162.97 129.781 162.015 129.781 161.425 130.37C160.836 130.959 160.836 131.915 161.425 132.504L164.399 135.477L158.765 134.822C157.937 134.726 157.188 135.319 157.092 136.147C156.996 136.974 157.589 137.723 158.416 137.819L167.836 138.914L169.796 140.874L164.162 140.219C163.334 140.123 162.585 140.716 162.489 141.544C162.393 142.371 162.986 143.12 163.813 143.216L173.233 144.311L182.874 153.952H169.108L161.772 148.144C161.119 147.627 160.17 147.737 159.653 148.39C159.136 149.043 159.246 149.992 159.899 150.51L164.247 153.952H161.476L154.14 148.144C153.486 147.627 152.537 147.737 152.02 148.39C151.503 149.043 151.613 149.992 152.267 150.51L156.615 153.952H152.509C151.675 153.952 151 154.628 151 155.461C151 156.294 151.675 156.97 152.509 156.97H156.713L152.267 160.49C151.613 161.008 151.503 161.957 152.02 162.61C152.537 163.263 153.486 163.373 154.14 162.856L161.574 156.97H164.346L159.899 160.49C159.246 161.008 159.136 161.957 159.653 162.61C160.17 163.263 161.119 163.373 161.772 162.856L169.207 156.97H182.841L173.108 166.703L163.813 167.784C162.985 167.88 162.392 168.629 162.489 169.456C162.585 170.284 163.334 170.877 164.161 170.781L169.67 170.141L167.711 172.1L158.416 173.181C157.588 173.277 156.995 174.026 157.091 174.853C157.188 175.681 157.937 176.274 158.764 176.178L164.273 175.538L161.37 178.441C160.781 179.03 160.781 179.986 161.37 180.575C161.959 181.164 162.914 181.164 163.504 180.575L166.477 177.602L165.822 183.236C165.726 184.063 166.319 184.812 167.147 184.908C167.974 185.005 168.723 184.412 168.819 183.584L169.914 174.164L171.874 172.205L171.219 177.839C171.123 178.666 171.716 179.415 172.544 179.511C173.371 179.608 174.12 179.015 174.216 178.187L175.311 168.767L184.952 159.126V172.892L179.144 180.228C178.627 180.881 178.737 181.83 179.39 182.347C180.043 182.865 180.992 182.754 181.51 182.101L184.952 177.753V180.524L179.144 187.86C178.627 188.514 178.737 189.462 179.39 189.98C180.043 190.497 180.992 190.387 181.51 189.733L184.952 185.385V189.491C184.952 190.325 185.628 191 186.461 191C187.294 191 187.97 190.325 187.97 189.491V185.287L191.49 189.733C192.008 190.387 192.957 190.497 193.61 189.98C194.263 189.462 194.373 188.514 193.856 187.86L187.97 180.426V177.654L191.49 182.101C192.008 182.754 192.957 182.865 193.61 182.347C194.263 181.83 194.373 180.881 193.856 180.228L187.97 172.793V159.048L197.246 168.324L198.341 177.744C198.437 178.572 199.186 179.165 200.014 179.068C200.841 178.972 201.434 178.223 201.338 177.396L200.683 171.762L202.643 173.721L203.738 183.141C203.834 183.969 204.583 184.562 205.411 184.465C206.238 184.369 206.831 183.62 206.735 182.793L206.08 177.159L209.496 180.575C210.086 181.164 211.041 181.164 211.63 180.575C212.219 179.985 212.219 179.03 211.63 178.441L208.284 175.095L213.793 175.735C214.621 175.831 215.37 175.238 215.466 174.41C215.562 173.583 214.969 172.834 214.141 172.738L204.847 171.657L202.887 169.698L208.396 170.338C209.224 170.434 209.973 169.841 210.069 169.013C210.165 168.186 209.572 167.437 208.744 167.341L199.45 166.26L190.159 156.97H203.167L210.601 162.856C211.255 163.373 212.204 163.263 212.721 162.61C213.238 161.957 213.128 161.008 212.475 160.49L208.028 156.97H210.799L218.234 162.856C218.887 163.373 219.836 163.263 220.353 162.61C220.871 161.957 220.76 161.008 220.107 160.49L215.66 156.97H220.491C221.325 156.97 222 156.294 222 155.461C222 154.628 221.325 153.952 220.491 153.952H215.759L220.107 150.51C220.76 149.992 220.871 149.043 220.353 148.39C219.836 147.737 218.887 147.627 218.234 148.144L210.898 153.952H208.126L212.475 150.51C213.128 149.992 213.238 149.043 212.721 148.39C212.204 147.737 211.255 147.627 210.601 148.144L203.265 153.952H190.126L199.324 144.754L208.744 143.659C209.572 143.563 210.165 142.814 210.068 141.987C209.972 141.159 209.223 140.566 208.396 140.662L202.762 141.317L204.721 139.357L214.141 138.262C214.969 138.166 215.562 137.417 215.465 136.59C215.369 135.762 214.62 135.169 213.793 135.265L208.159 135.92L211.575 132.504C212.164 131.915 212.164 130.959 211.575 130.37C210.985 129.781 210.03 129.781 209.441 130.37L206.095 133.716L206.735 128.207C206.831 127.38 206.238 126.631 205.411 126.535C204.583 126.438 203.834 127.031 203.738 127.859L202.658 137.153L200.698 139.113L201.338 133.604C201.434 132.777 200.841 132.028 200.014 131.932C199.186 131.835 198.437 132.428 198.341 133.256L197.261 142.55L187.97 151.841V138.833L193.856 131.398C194.373 130.745 194.263 129.796 193.61 129.279C192.957 128.762 192.008 128.872 191.49 129.525L187.97 133.972V131.2L193.856 123.766C194.373 123.113 194.263 122.164 193.61 121.647C192.957 121.129 192.008 121.24 191.49 121.893L187.97 126.339V121.509C187.97 120.675 187.294 120 186.461 120Z" fill="url(#paint0_linear_106_2337)"/>
<path d="M51.3735 214.392C52.4831 210.267 56.7284 207.816 60.8557 208.918C64.983 210.02 67.4293 214.257 66.3196 218.382L59.2134 244.8C58.1038 248.925 53.8585 251.376 49.7312 250.274C45.604 249.173 43.1577 244.936 44.2673 240.81L51.3735 214.392Z" fill="url(#paint1_linear_106_2337)"/>
<path d="M101.514 214.392C102.623 210.267 106.869 207.816 110.996 208.918C115.123 210.02 117.57 214.257 116.46 218.382L109.354 244.8C108.244 248.925 103.999 251.376 99.8716 250.274C95.7444 249.173 93.2981 244.936 94.4077 240.81L101.514 214.392Z" fill="url(#paint2_linear_106_2337)"/>
<path d="M78.8817 152.738C79.9913 148.613 84.2367 146.162 88.364 147.264C92.4912 148.365 94.9375 152.602 93.8279 156.728L86.7217 183.146C85.6121 187.271 81.3667 189.722 77.2395 188.62C73.1122 187.519 70.6659 183.281 71.7755 179.156L78.8817 152.738Z" fill="url(#paint3_linear_106_2337)"/>
<path d="M129.022 152.738C130.132 148.613 134.377 146.162 138.504 147.264C142.632 148.365 145.078 152.602 143.968 156.728L136.862 183.146C135.752 187.271 131.507 189.722 127.38 188.62C123.253 187.519 120.806 183.281 121.916 179.156L129.022 152.738Z" fill="url(#paint4_linear_106_2337)"/>
<path fill-rule="evenodd" clip-rule="evenodd" d="M154.473 209C153.898 209 153.432 209.466 153.432 210.041V213.307L151.056 210.306C150.699 209.855 150.044 209.779 149.593 210.136C149.142 210.493 149.066 211.148 149.423 211.599L153.432 216.662V218.575L151.056 215.574C150.699 215.123 150.044 215.047 149.593 215.404C149.142 215.761 149.066 216.416 149.423 216.867L153.432 221.929V230.921L146.768 224.257L146.023 217.843C145.956 217.272 145.439 216.862 144.868 216.929C144.297 216.995 143.888 217.512 143.954 218.083L144.396 221.885L143.043 220.533L142.298 214.118C142.232 213.547 141.715 213.138 141.143 213.204C140.572 213.27 140.163 213.787 140.229 214.359L140.671 218.16L138.668 216.157C138.261 215.75 137.602 215.75 137.195 216.157C136.788 216.563 136.788 217.223 137.195 217.629L139.247 219.681L135.359 219.229C134.787 219.163 134.271 219.572 134.204 220.143C134.138 220.715 134.547 221.232 135.118 221.298L141.619 222.053L142.972 223.406L139.083 222.954C138.512 222.888 137.995 223.297 137.929 223.868C137.862 224.439 138.272 224.956 138.843 225.023L145.344 225.778L151.997 232.432H142.497L137.434 228.423C136.983 228.066 136.329 228.142 135.972 228.593C135.615 229.044 135.691 229.699 136.142 230.056L139.142 232.432H137.23L132.167 228.423C131.716 228.066 131.061 228.142 130.704 228.593C130.347 229.044 130.423 229.699 130.874 230.056L133.875 232.432H131.041C130.466 232.432 130 232.898 130 233.473C130 234.048 130.466 234.514 131.041 234.514H133.943L130.874 236.944C130.423 237.301 130.347 237.956 130.704 238.407C131.061 238.858 131.716 238.934 132.167 238.577L137.298 234.514H139.21L136.142 236.944C135.691 237.301 135.615 237.956 135.972 238.407C136.329 238.858 136.983 238.934 137.434 238.577L142.565 234.514H151.975L145.257 241.232L138.843 241.977C138.272 242.044 137.862 242.561 137.929 243.132C137.995 243.703 138.512 244.112 139.083 244.046L142.885 243.604L141.533 244.957L135.118 245.702C134.547 245.768 134.138 246.285 134.204 246.857C134.27 247.428 134.787 247.837 135.358 247.771L139.16 247.329L137.157 249.333C136.75 249.739 136.75 250.398 137.157 250.805C137.563 251.212 138.223 251.212 138.629 250.805L140.681 248.753L140.229 252.641C140.163 253.213 140.572 253.73 141.143 253.796C141.715 253.862 142.231 253.453 142.298 252.882L143.053 246.381L144.406 245.029L143.954 248.917C143.888 249.488 144.297 250.005 144.868 250.071C145.439 250.138 145.956 249.728 146.023 249.157L146.778 242.656L153.432 236.003V245.503L149.423 250.566C149.066 251.017 149.142 251.671 149.593 252.028C150.044 252.385 150.699 252.309 151.056 251.858L153.432 248.858V250.77L149.423 255.833C149.066 256.284 149.142 256.939 149.593 257.296C150.044 257.653 150.699 257.577 151.056 257.126L153.432 254.125V256.959C153.432 257.534 153.898 258 154.473 258C155.048 258 155.514 257.534 155.514 256.959V254.057L157.944 257.126C158.301 257.577 158.956 257.653 159.407 257.296C159.858 256.939 159.934 256.284 159.577 255.833L155.514 250.702V248.79L157.944 251.858C158.301 252.309 158.956 252.385 159.407 252.028C159.858 251.671 159.934 251.017 159.577 250.566L155.514 245.435V235.949L161.916 242.351L162.672 248.851C162.738 249.423 163.255 249.832 163.826 249.766C164.398 249.699 164.807 249.182 164.74 248.611L164.289 244.723L165.641 246.075L166.397 252.576C166.463 253.147 166.98 253.557 167.551 253.49C168.122 253.424 168.531 252.907 168.465 252.336L168.013 248.448L170.371 250.805C170.777 251.212 171.437 251.212 171.843 250.805C172.25 250.398 172.25 249.739 171.843 249.333L169.534 247.023L173.336 247.465C173.907 247.531 174.424 247.122 174.49 246.551C174.557 245.98 174.148 245.463 173.576 245.396L167.162 244.651L165.809 243.298L169.611 243.74C170.182 243.807 170.699 243.397 170.766 242.826C170.832 242.255 170.423 241.738 169.852 241.672L163.437 240.926L157.025 234.514H166.002L171.133 238.577C171.584 238.934 172.239 238.858 172.596 238.407C172.953 237.956 172.877 237.301 172.426 236.944L169.357 234.514H171.27L176.401 238.577C176.852 238.934 177.507 238.858 177.864 238.407C178.221 237.956 178.144 237.301 177.694 236.944L174.625 234.514H177.959C178.534 234.514 179 234.048 179 233.473C179 232.898 178.534 232.432 177.959 232.432H174.693L177.694 230.056C178.144 229.699 178.221 229.044 177.864 228.593C177.507 228.142 176.852 228.066 176.401 228.423L171.338 232.432H169.425L172.426 230.056C172.877 229.699 172.953 229.044 172.596 228.593C172.239 228.142 171.584 228.066 171.133 228.423L166.07 232.432H157.003L163.351 226.084L169.851 225.328C170.423 225.262 170.832 224.745 170.766 224.174C170.699 223.603 170.182 223.193 169.611 223.26L165.723 223.712L167.075 222.359L173.576 221.604C174.147 221.537 174.557 221.02 174.49 220.449C174.424 219.878 173.907 219.469 173.336 219.535L169.448 219.987L171.805 217.629C172.212 217.223 172.212 216.563 171.805 216.157C171.398 215.75 170.739 215.75 170.332 216.157L168.023 218.466L168.465 214.664C168.531 214.093 168.122 213.576 167.551 213.51C166.98 213.443 166.463 213.853 166.396 214.424L165.651 220.838L164.299 222.191L164.74 218.389C164.807 217.818 164.397 217.301 163.826 217.234C163.255 217.168 162.738 217.577 162.672 218.149L161.926 224.563L155.514 230.975V221.997L159.577 216.867C159.934 216.416 159.858 215.761 159.407 215.404C158.956 215.047 158.301 215.123 157.944 215.574L155.514 218.643V216.73L159.577 211.599C159.934 211.148 159.858 210.493 159.407 210.136C158.956 209.779 158.301 209.855 157.944 210.306L155.514 213.375V210.041C155.514 209.466 155.048 209 154.473 209Z" fill="url(#paint5_linear_106_2337)"/>
<g filter="url(#filter0_bd_106_2337)">
<mask id="path-4-outside-1_106_2337" maskUnits="userSpaceOnUse" x="15" y="11" width="255" height="155" fill="black">
<rect fill="white" x="15" y="11" width="255" height="155"/>
<path fill-rule="evenodd" clip-rule="evenodd" d="M197.882 82.0141C197.882 84.4233 197.758 86.8036 197.517 89.149C204.953 82.6871 214.664 78.7752 225.288 78.7752C248.68 78.7752 267.643 97.7383 267.643 121.13C267.643 144.523 248.68 163.486 225.288 163.486H60.6379C60.6256 163.486 60.6133 163.486 60.601 163.486C60.5887 163.486 60.5764 163.486 60.5641 163.486H60.3518V163.485C36.3863 163.351 17 143.882 17 119.885C17 95.9758 36.2441 76.5617 60.0878 76.2867C62.999 40.8508 92.6809 13 128.868 13C166.983 13 197.882 43.8987 197.882 82.0141Z"/>
</mask>
<path fill-rule="evenodd" clip-rule="evenodd" d="M197.882 82.0141C197.882 84.4233 197.758 86.8036 197.517 89.149C204.953 82.6871 214.664 78.7752 225.288 78.7752C248.68 78.7752 267.643 97.7383 267.643 121.13C267.643 144.523 248.68 163.486 225.288 163.486H60.6379C60.6256 163.486 60.6133 163.486 60.601 163.486C60.5887 163.486 60.5764 163.486 60.5641 163.486H60.3518V163.485C36.3863 163.351 17 143.882 17 119.885C17 95.9758 36.2441 76.5617 60.0878 76.2867C62.999 40.8508 92.6809 13 128.868 13C166.983 13 197.882 43.8987 197.882 82.0141Z" fill="url(#paint6_linear_106_2337)" shape-rendering="crispEdges"/>
<path d="M197.517 89.149L195.528 88.9447L195.011 93.9771L198.829 90.6586L197.517 89.149ZM60.3518 163.486H58.3518V165.486H60.3518V163.486ZM60.3518 163.485H62.3518V161.496L60.363 161.485L60.3518 163.485ZM60.0878 76.2867L60.1109 78.2866L61.932 78.2656L62.0811 76.4504L60.0878 76.2867ZM199.507 89.3534C199.755 86.9401 199.882 84.4916 199.882 82.0141H195.882C195.882 84.3549 195.762 86.667 195.528 88.9447L199.507 89.3534ZM225.288 76.7752C214.163 76.7752 203.991 80.8733 196.206 87.6395L198.829 90.6586C205.915 84.5008 215.164 80.7752 225.288 80.7752V76.7752ZM269.643 121.13C269.643 96.6337 249.785 76.7752 225.288 76.7752V80.7752C247.576 80.7752 265.643 98.8429 265.643 121.13H269.643ZM225.288 165.486C249.785 165.486 269.643 145.627 269.643 121.13H265.643C265.643 143.418 247.576 161.486 225.288 161.486V165.486ZM225.288 161.486H60.6379V165.486H225.288V161.486ZM60.601 165.486C60.6079 165.486 60.6146 165.486 60.6207 165.486C60.6269 165.486 60.6324 165.486 60.6379 165.486V161.486C60.631 161.486 60.6242 161.486 60.6182 161.486C60.6119 161.486 60.6064 161.486 60.601 161.486V165.486ZM60.5641 165.486C60.5695 165.486 60.5751 165.486 60.5813 165.486C60.5874 165.486 60.5941 165.486 60.601 165.486V161.486C60.5956 161.486 60.59 161.486 60.5838 161.486C60.5777 161.486 60.571 161.486 60.5641 161.486V165.486ZM60.5641 161.486H60.3518V165.486H60.5641V161.486ZM62.3518 163.486V163.485H58.3518V163.486H62.3518ZM15 119.885C15 144.983 35.2756 165.345 60.3407 165.485L60.363 161.485C37.4971 161.357 19 142.781 19 119.885H15ZM60.0647 74.2868C35.1268 74.5744 15 94.879 15 119.885H19C19 97.0727 37.3614 78.5489 60.1109 78.2866L60.0647 74.2868ZM128.868 11C91.6312 11 61.0902 39.6581 58.0945 76.1229L62.0811 76.4504C64.9077 42.0436 93.7306 15 128.868 15V11ZM199.882 82.0141C199.882 42.7941 168.088 11 128.868 11V15C165.879 15 195.882 45.0033 195.882 82.0141H199.882Z" fill="url(#paint7_linear_106_2337)" mask="url(#path-4-outside-1_106_2337)"/>
</g>
<defs>
<filter id="filter0_bd_106_2337" x="0" y="0" width="284.643" height="184.486" filterUnits="userSpaceOnUse" color-interpolation-filters="sRGB">
<feFlood flood-opacity="0" result="BackgroundImageFix"/>
<feGaussianBlur in="BackgroundImageFix" stdDeviation="5"/>
<feComposite in2="SourceAlpha" operator="in" result="effect1_backgroundBlur_106_2337"/>
<feColorMatrix in="SourceAlpha" type="matrix" values="0 0 0 0 0 0 0 0 0 0 0 0 0 0 0 0 0 0 127 0" result="hardAlpha"/>
<feOffset dy="4"/>
<feGaussianBlur stdDeviation="7.5"/>
<feComposite in2="hardAlpha" operator="out"/>
<feColorMatrix type="matrix" values="0 0 0 0 0 0 0 0 0 0 0 0 0 0 0 0 0 0 0.1 0"/>
<feBlend mode="normal" in2="effect1_backgroundBlur_106_2337" result="effect2_dropShadow_106_2337"/>
<feBlend mode="normal" in="SourceGraphic" in2="effect2_dropShadow_106_2337" result="shape"/>
</filter>
<linearGradient id="paint0_linear_106_2337" x1="212.731" y1="125.857" x2="161.788" y2="175.558" gradientUnits="userSpaceOnUse">
<stop stop-color="#D6E9FF"/>
<stop offset="1" stop-color="#2898FF"/>
</linearGradient>
<linearGradient id="paint1_linear_106_2337" x1="122.902" y1="182.106" x2="144.537" y2="154.14" gradientUnits="userSpaceOnUse">
<stop stop-color="#3981EE"/>
<stop offset="1" stop-color="#92BDFF"/>
</linearGradient>
<linearGradient id="paint2_linear_106_2337" x1="122.902" y1="182.106" x2="144.537" y2="154.14" gradientUnits="userSpaceOnUse">
<stop stop-color="#3981EE"/>
<stop offset="1" stop-color="#92BDFF"/>
</linearGradient>
<linearGradient id="paint3_linear_106_2337" x1="122.902" y1="182.106" x2="144.537" y2="154.14" gradientUnits="userSpaceOnUse">
<stop stop-color="#3981EE"/>
<stop offset="1" stop-color="#92BDFF"/>
</linearGradient>
<linearGradient id="paint4_linear_106_2337" x1="122.902" y1="182.106" x2="144.537" y2="154.14" gradientUnits="userSpaceOnUse">
<stop stop-color="#3981EE"/>
<stop offset="1" stop-color="#92BDFF"/>
</linearGradient>
<linearGradient id="paint5_linear_106_2337" x1="172.603" y1="213.042" x2="137.446" y2="247.343" gradientUnits="userSpaceOnUse">
<stop stop-color="#D6E9FF"/>
<stop offset="1" stop-color="#2898FF"/>
</linearGradient>
<linearGradient id="paint6_linear_106_2337" x1="96.5248" y1="28.5" x2="176.025" y2="158" gradientUnits="userSpaceOnUse">
<stop stop-color="#508ABF"/>
<stop offset="1" stop-color="#2073A2" stop-opacity="0.53"/>
</linearGradient>
<linearGradient id="paint7_linear_106_2337" x1="177.525" y1="213.5" x2="99.5247" y2="-6.49999" gradientUnits="userSpaceOnUse">
<stop stop-color="#4195C6"/>
<stop offset="1" stop-color="#5E8398" stop-opacity="0.56"/>
<stop offset="1" stop-color="#AFE2FF" stop-opacity="0.5"/>
</linearGradient>
</defs>
</svg>
