<svg width="308" height="318" viewBox="0 0 308 318" fill="none" xmlns="http://www.w3.org/2000/svg">
<mask id="path-1-outside-1_106_3577" maskUnits="userSpaceOnUse" x="60.5494" y="5.37366" width="129" height="144" fill="black">
<rect fill="white" x="60.5494" y="5.37366" width="129" height="144"/>
<path fill-rule="evenodd" clip-rule="evenodd" d="M184.445 122.402C182.809 122.518 181.158 122.577 179.493 122.577C141.323 122.577 110.381 91.5056 110.381 53.1765C110.381 36.0996 116.523 20.4633 126.71 8.37366C90.8514 10.9229 62.5494 40.9421 62.5494 77.5991C62.5494 115.928 93.4921 147 131.662 147C152.826 147 171.767 137.448 184.445 122.402Z"/>
</mask>
<path fill-rule="evenodd" clip-rule="evenodd" d="M184.445 122.402C182.809 122.518 181.158 122.577 179.493 122.577C141.323 122.577 110.381 91.5056 110.381 53.1765C110.381 36.0996 116.523 20.4633 126.71 8.37366C90.8514 10.9229 62.5494 40.9421 62.5494 77.5991C62.5494 115.928 93.4921 147 131.662 147C152.826 147 171.767 137.448 184.445 122.402Z" fill="url(#paint0_linear_106_3577)"/>
<path d="M184.445 122.402L185.974 123.691L189.024 120.071L184.303 120.407L184.445 122.402ZM126.71 8.37366L128.239 9.66238L131.289 6.04307L126.568 6.37869L126.71 8.37366ZM184.303 120.407C182.715 120.52 181.111 120.577 179.493 120.577V124.577C181.206 124.577 182.904 124.517 184.587 124.397L184.303 120.407ZM179.493 120.577C142.436 120.577 112.381 90.4089 112.381 53.1765H108.381C108.381 92.6023 140.211 124.577 179.493 124.577V120.577ZM112.381 53.1765C112.381 36.5878 118.345 21.4042 128.239 9.66238L125.18 7.08493C114.7 19.5224 108.381 35.6115 108.381 53.1765H112.381ZM64.5494 77.5991C64.5494 41.9921 92.0397 12.8435 126.852 10.3686L126.568 6.37869C89.6631 9.00233 60.5494 39.8921 60.5494 77.5991H64.5494ZM131.662 145C94.6045 145 64.5494 114.831 64.5494 77.5991H60.5494C60.5494 117.025 92.3797 149 131.662 149V145ZM182.916 121.113C170.601 135.728 152.209 145 131.662 145V149C153.442 149 172.934 139.167 185.974 123.691L182.916 121.113Z" fill="url(#paint1_linear_106_3577)" mask="url(#path-1-outside-1_106_3577)"/>
<path d="M36.694 14.3963L31.4806 3.5381C29.8557 0.153972 25.1333 0.153965 23.5084 3.53809L18.295 14.3963C17.9337 15.1488 17.2427 15.6572 16.4588 15.7742L4.8012 17.5154C1.13055 18.0637 -0.259543 22.6424 2.33474 25.2417L10.7703 33.6936C11.3495 34.2739 11.6201 35.1185 11.481 35.9522L9.48962 47.8865C8.88132 51.532 12.6308 54.4476 15.9424 52.6581L26.3692 47.0235C27.0747 46.6423 27.9143 46.6423 28.6198 47.0235L39.0466 52.6581C42.3582 54.4476 46.1077 51.532 45.4994 47.8865L43.508 35.9522C43.3689 35.1185 43.6395 34.2739 44.2187 33.6936L52.6543 25.2417C55.2485 22.6424 53.8585 18.0637 50.1878 17.5154L38.5302 15.7742C37.7463 15.6572 37.0553 15.1488 36.694 14.3963Z" fill="url(#paint2_linear_106_3577)" stroke="url(#paint3_linear_106_3577)" stroke-width="2"/>
<path d="M190.786 65.4702L187.365 58.5761C186.17 56.167 182.721 56.167 181.525 58.5761L178.104 65.4702C177.922 65.8369 177.568 66.0936 177.157 66.1531L169.507 67.2586C166.841 67.6438 165.761 70.9131 167.702 72.7954L173.238 78.1617C173.534 78.4482 173.667 78.8592 173.598 79.2608L172.291 86.8381C171.832 89.5007 174.637 91.5044 177.015 90.2608L183.858 86.6832C184.225 86.4912 184.665 86.4912 185.032 86.6832L191.875 90.2608C194.254 91.5044 197.058 89.5007 196.599 86.8381L195.292 79.2608C195.223 78.8592 195.356 78.4482 195.652 78.1617L201.188 72.7954C203.129 70.9131 202.049 67.6438 199.384 67.2586L191.733 66.1531C191.322 66.0936 190.968 65.8369 190.786 65.4702Z" fill="url(#paint4_linear_106_3577)" stroke="url(#paint5_linear_106_3577)" stroke-width="2"/>
<path fill-rule="evenodd" clip-rule="evenodd" d="M209.461 180C208.628 180 207.952 180.675 207.952 181.509V186.241L204.509 181.893C203.992 181.24 203.043 181.129 202.39 181.647C201.737 182.164 201.627 183.113 202.144 183.766L207.952 191.102V193.873L204.51 189.525C203.992 188.872 203.043 188.762 202.39 189.279C201.737 189.796 201.627 190.745 202.144 191.398L207.952 198.734V211.763L198.297 202.108L197.216 192.813C197.12 191.985 196.371 191.392 195.544 191.489C194.716 191.585 194.123 192.334 194.219 193.161L194.859 198.67L192.9 196.71L191.819 187.416C191.723 186.588 190.974 185.995 190.147 186.092C189.319 186.188 188.726 186.937 188.822 187.764L189.462 193.273L186.559 190.37C185.97 189.781 185.015 189.781 184.425 190.37C183.836 190.959 183.836 191.915 184.425 192.504L187.399 195.477L181.765 194.822C180.937 194.726 180.188 195.319 180.092 196.147C179.996 196.974 180.589 197.723 181.416 197.819L190.836 198.914L192.796 200.874L187.162 200.219C186.334 200.123 185.585 200.716 185.489 201.544C185.393 202.371 185.986 203.12 186.813 203.216L196.233 204.311L205.874 213.952H192.108L184.772 208.144C184.119 207.627 183.17 207.737 182.653 208.39C182.136 209.043 182.246 209.992 182.899 210.51L187.247 213.952H184.476L177.14 208.144C176.486 207.627 175.537 207.737 175.02 208.39C174.503 209.043 174.613 209.992 175.267 210.51L179.615 213.952H175.509C174.675 213.952 174 214.628 174 215.461C174 216.294 174.675 216.97 175.509 216.97H179.713L175.267 220.49C174.613 221.008 174.503 221.957 175.02 222.61C175.537 223.263 176.486 223.373 177.14 222.856L184.574 216.97H187.346L182.899 220.49C182.246 221.008 182.136 221.957 182.653 222.61C183.17 223.263 184.119 223.373 184.772 222.856L192.207 216.97H205.841L196.108 226.703L186.813 227.784C185.985 227.88 185.392 228.629 185.489 229.456C185.585 230.284 186.334 230.877 187.161 230.781L192.67 230.141L190.711 232.1L181.416 233.181C180.588 233.277 179.995 234.026 180.091 234.853C180.188 235.681 180.937 236.274 181.764 236.178L187.273 235.538L184.37 238.441C183.781 239.03 183.781 239.986 184.37 240.575C184.959 241.164 185.914 241.164 186.504 240.575L189.477 237.602L188.822 243.236C188.726 244.063 189.319 244.812 190.147 244.908C190.974 245.005 191.723 244.412 191.819 243.584L192.914 234.164L194.874 232.205L194.219 237.839C194.123 238.666 194.716 239.415 195.544 239.511C196.371 239.608 197.12 239.015 197.216 238.187L198.311 228.767L207.952 219.126V232.892L202.144 240.228C201.627 240.881 201.737 241.83 202.39 242.347C203.043 242.865 203.992 242.754 204.51 242.101L207.952 237.753V240.524L202.144 247.86C201.627 248.514 201.737 249.462 202.39 249.98C203.043 250.497 203.992 250.387 204.51 249.733L207.952 245.385V249.491C207.952 250.325 208.628 251 209.461 251C210.294 251 210.97 250.325 210.97 249.491V245.287L214.49 249.733C215.008 250.387 215.957 250.497 216.61 249.98C217.263 249.462 217.373 248.514 216.856 247.86L210.97 240.426V237.654L214.49 242.101C215.008 242.754 215.957 242.865 216.61 242.347C217.263 241.83 217.373 240.881 216.856 240.228L210.97 232.793V219.048L220.246 228.324L221.341 237.744C221.437 238.572 222.186 239.165 223.014 239.068C223.841 238.972 224.434 238.223 224.338 237.396L223.683 231.762L225.643 233.721L226.738 243.141C226.834 243.969 227.583 244.562 228.411 244.465C229.238 244.369 229.831 243.62 229.735 242.793L229.08 237.159L232.496 240.575C233.086 241.164 234.041 241.164 234.63 240.575C235.219 239.985 235.219 239.03 234.63 238.441L231.284 235.095L236.793 235.735C237.621 235.831 238.37 235.238 238.466 234.41C238.562 233.583 237.969 232.834 237.141 232.738L227.847 231.657L225.887 229.698L231.396 230.338C232.224 230.434 232.973 229.841 233.069 229.013C233.165 228.186 232.572 227.437 231.744 227.341L222.45 226.26L213.159 216.97H226.167L233.601 222.856C234.255 223.373 235.204 223.263 235.721 222.61C236.238 221.957 236.128 221.008 235.475 220.49L231.028 216.97H233.799L241.234 222.856C241.887 223.373 242.836 223.263 243.353 222.61C243.871 221.957 243.76 221.008 243.107 220.49L238.66 216.97H243.491C244.325 216.97 245 216.294 245 215.461C245 214.628 244.325 213.952 243.491 213.952H238.759L243.107 210.51C243.76 209.992 243.871 209.043 243.353 208.39C242.836 207.737 241.887 207.627 241.234 208.144L233.898 213.952H231.126L235.475 210.51C236.128 209.992 236.238 209.043 235.721 208.39C235.204 207.737 234.255 207.627 233.601 208.144L226.265 213.952H213.126L222.324 204.754L231.744 203.659C232.572 203.563 233.165 202.814 233.068 201.987C232.972 201.159 232.223 200.566 231.396 200.662L225.762 201.317L227.721 199.357L237.141 198.262C237.969 198.166 238.562 197.417 238.465 196.59C238.369 195.762 237.62 195.169 236.793 195.265L231.159 195.92L234.575 192.504C235.164 191.915 235.164 190.959 234.575 190.37C233.985 189.781 233.03 189.781 232.441 190.37L229.095 193.716L229.735 188.207C229.831 187.38 229.238 186.631 228.411 186.535C227.583 186.438 226.834 187.031 226.738 187.859L225.658 197.153L223.698 199.113L224.338 193.604C224.434 192.777 223.841 192.028 223.014 191.932C222.186 191.835 221.437 192.428 221.341 193.256L220.261 202.55L210.97 211.841V198.833L216.856 191.398C217.373 190.745 217.263 189.796 216.61 189.279C215.957 188.762 215.008 188.872 214.49 189.525L210.97 193.972V191.2L216.856 183.766C217.373 183.113 217.263 182.164 216.61 181.647C215.957 181.129 215.008 181.24 214.49 181.893L210.97 186.339V181.509C210.97 180.675 210.294 180 209.461 180Z" fill="url(#paint6_linear_106_3577)"/>
<path d="M74.3735 274.392C75.4831 270.267 79.7284 267.816 83.8557 268.918C87.983 270.02 90.4293 274.257 89.3196 278.382L82.2134 304.8C81.1038 308.925 76.8585 311.376 72.7312 310.274C68.604 309.173 66.1577 304.936 67.2673 300.81L74.3735 274.392Z" fill="url(#paint7_linear_106_3577)"/>
<path d="M124.514 274.392C125.623 270.267 129.869 267.816 133.996 268.918C138.123 270.02 140.57 274.257 139.46 278.382L132.354 304.8C131.244 308.925 126.999 311.376 122.872 310.274C118.744 309.173 116.298 304.936 117.408 300.81L124.514 274.392Z" fill="url(#paint8_linear_106_3577)"/>
<path d="M101.882 212.738C102.991 208.613 107.237 206.162 111.364 207.264C115.491 208.365 117.938 212.602 116.828 216.728L109.722 243.146C108.612 247.271 104.367 249.722 100.239 248.62C96.1122 247.519 93.6659 243.281 94.7755 239.156L101.882 212.738Z" fill="url(#paint9_linear_106_3577)"/>
<path d="M152.022 212.738C153.132 208.613 157.377 206.162 161.504 207.264C165.632 208.365 168.078 212.602 166.968 216.728L159.862 243.146C158.752 247.271 154.507 249.722 150.38 248.62C146.253 247.519 143.806 243.281 144.916 239.156L152.022 212.738Z" fill="url(#paint10_linear_106_3577)"/>
<path fill-rule="evenodd" clip-rule="evenodd" d="M177.473 269C176.898 269 176.432 269.466 176.432 270.041V273.307L174.056 270.306C173.699 269.855 173.044 269.779 172.593 270.136C172.142 270.493 172.066 271.148 172.423 271.599L176.432 276.662V278.575L174.056 275.574C173.699 275.123 173.044 275.047 172.593 275.404C172.142 275.761 172.066 276.416 172.423 276.867L176.432 281.929V290.921L169.768 284.257L169.023 277.843C168.956 277.272 168.439 276.862 167.868 276.929C167.297 276.995 166.888 277.512 166.954 278.083L167.396 281.885L166.043 280.533L165.298 274.118C165.232 273.547 164.715 273.138 164.143 273.204C163.572 273.27 163.163 273.787 163.229 274.359L163.671 278.16L161.668 276.157C161.261 275.75 160.602 275.75 160.195 276.157C159.788 276.563 159.788 277.223 160.195 277.629L162.247 279.681L158.359 279.229C157.787 279.163 157.271 279.572 157.204 280.143C157.138 280.715 157.547 281.232 158.118 281.298L164.619 282.053L165.972 283.406L162.083 282.954C161.512 282.888 160.995 283.297 160.929 283.868C160.862 284.439 161.272 284.956 161.843 285.023L168.344 285.778L174.997 292.432H165.497L160.434 288.423C159.983 288.066 159.329 288.142 158.972 288.593C158.615 289.044 158.691 289.699 159.142 290.056L162.142 292.432H160.23L155.167 288.423C154.716 288.066 154.061 288.142 153.704 288.593C153.347 289.044 153.423 289.699 153.874 290.056L156.875 292.432H154.041C153.466 292.432 153 292.898 153 293.473C153 294.048 153.466 294.514 154.041 294.514H156.943L153.874 296.944C153.423 297.301 153.347 297.956 153.704 298.407C154.061 298.858 154.716 298.934 155.167 298.577L160.298 294.514H162.21L159.142 296.944C158.691 297.301 158.615 297.956 158.972 298.407C159.329 298.858 159.983 298.934 160.434 298.577L165.565 294.514H174.975L168.257 301.232L161.843 301.977C161.272 302.044 160.862 302.561 160.929 303.132C160.995 303.703 161.512 304.112 162.083 304.046L165.885 303.604L164.533 304.957L158.118 305.702C157.547 305.768 157.138 306.285 157.204 306.857C157.27 307.428 157.787 307.837 158.358 307.771L162.16 307.329L160.157 309.333C159.75 309.739 159.75 310.398 160.157 310.805C160.563 311.212 161.223 311.212 161.629 310.805L163.681 308.753L163.229 312.641C163.163 313.213 163.572 313.73 164.143 313.796C164.715 313.862 165.231 313.453 165.298 312.882L166.053 306.381L167.406 305.029L166.954 308.917C166.888 309.488 167.297 310.005 167.868 310.071C168.439 310.138 168.956 309.728 169.023 309.157L169.778 302.656L176.432 296.003V305.503L172.423 310.566C172.066 311.017 172.142 311.671 172.593 312.028C173.044 312.385 173.699 312.309 174.056 311.858L176.432 308.858V310.77L172.423 315.833C172.066 316.284 172.142 316.939 172.593 317.296C173.044 317.653 173.699 317.577 174.056 317.126L176.432 314.125V316.959C176.432 317.534 176.898 318 177.473 318C178.048 318 178.514 317.534 178.514 316.959V314.057L180.944 317.126C181.301 317.577 181.956 317.653 182.407 317.296C182.858 316.939 182.934 316.284 182.577 315.833L178.514 310.702V308.79L180.944 311.858C181.301 312.309 181.956 312.385 182.407 312.028C182.858 311.671 182.934 311.017 182.577 310.566L178.514 305.435V295.949L184.916 302.351L185.672 308.851C185.738 309.423 186.255 309.832 186.826 309.766C187.398 309.699 187.807 309.182 187.74 308.611L187.289 304.723L188.641 306.075L189.397 312.576C189.463 313.147 189.98 313.557 190.551 313.49C191.122 313.424 191.531 312.907 191.465 312.336L191.013 308.448L193.371 310.805C193.777 311.212 194.437 311.212 194.843 310.805C195.25 310.398 195.25 309.739 194.843 309.333L192.534 307.023L196.336 307.465C196.907 307.531 197.424 307.122 197.49 306.551C197.557 305.98 197.148 305.463 196.576 305.396L190.162 304.651L188.809 303.298L192.611 303.74C193.182 303.807 193.699 303.397 193.766 302.826C193.832 302.255 193.423 301.738 192.852 301.672L186.437 300.926L180.025 294.514H189.002L194.133 298.577C194.584 298.934 195.239 298.858 195.596 298.407C195.953 297.956 195.877 297.301 195.426 296.944L192.357 294.514H194.27L199.401 298.577C199.852 298.934 200.507 298.858 200.864 298.407C201.221 297.956 201.144 297.301 200.694 296.944L197.625 294.514H200.959C201.534 294.514 202 294.048 202 293.473C202 292.898 201.534 292.432 200.959 292.432H197.693L200.694 290.056C201.144 289.699 201.221 289.044 200.864 288.593C200.507 288.142 199.852 288.066 199.401 288.423L194.338 292.432H192.425L195.426 290.056C195.877 289.699 195.953 289.044 195.596 288.593C195.239 288.142 194.584 288.066 194.133 288.423L189.07 292.432H180.003L186.351 286.084L192.851 285.328C193.423 285.262 193.832 284.745 193.766 284.174C193.699 283.603 193.182 283.193 192.611 283.26L188.723 283.712L190.075 282.359L196.576 281.604C197.147 281.537 197.557 281.02 197.49 280.449C197.424 279.878 196.907 279.469 196.336 279.535L192.448 279.987L194.805 277.629C195.212 277.223 195.212 276.563 194.805 276.157C194.398 275.75 193.739 275.75 193.332 276.157L191.023 278.466L191.465 274.664C191.531 274.093 191.122 273.576 190.551 273.51C189.98 273.443 189.463 273.853 189.396 274.424L188.651 280.838L187.299 282.191L187.74 278.389C187.807 277.818 187.397 277.301 186.826 277.234C186.255 277.168 185.738 277.577 185.672 278.149L184.926 284.563L178.514 290.975V281.997L182.577 276.867C182.934 276.416 182.858 275.761 182.407 275.404C181.956 275.047 181.301 275.123 180.944 275.574L178.514 278.643V276.73L182.577 271.599C182.934 271.148 182.858 270.493 182.407 270.136C181.956 269.779 181.301 269.855 180.944 270.306L178.514 273.375V270.041C178.514 269.466 178.048 269 177.473 269Z" fill="url(#paint11_linear_106_3577)"/>
<g filter="url(#filter0_bd_106_3577)">
<mask id="path-8-outside-2_106_3577" maskUnits="userSpaceOnUse" x="38" y="71" width="255" height="155" fill="black">
<rect fill="white" x="38" y="71" width="255" height="155"/>
<path fill-rule="evenodd" clip-rule="evenodd" d="M220.882 142.014C220.882 144.423 220.758 146.804 220.517 149.149C227.953 142.687 237.664 138.775 248.288 138.775C271.68 138.775 290.643 157.738 290.643 181.13C290.643 204.523 271.68 223.486 248.288 223.486H83.6379C83.6256 223.486 83.6133 223.486 83.601 223.486C83.5887 223.486 83.5764 223.486 83.5641 223.486H83.3518V223.485C59.3863 223.351 40 203.882 40 179.885C40 155.976 59.2441 136.562 83.0878 136.287C85.999 100.851 115.681 73 151.868 73C189.983 73 220.882 103.899 220.882 142.014Z"/>
</mask>
<path fill-rule="evenodd" clip-rule="evenodd" d="M220.882 142.014C220.882 144.423 220.758 146.804 220.517 149.149C227.953 142.687 237.664 138.775 248.288 138.775C271.68 138.775 290.643 157.738 290.643 181.13C290.643 204.523 271.68 223.486 248.288 223.486H83.6379C83.6256 223.486 83.6133 223.486 83.601 223.486C83.5887 223.486 83.5764 223.486 83.5641 223.486H83.3518V223.485C59.3863 223.351 40 203.882 40 179.885C40 155.976 59.2441 136.562 83.0878 136.287C85.999 100.851 115.681 73 151.868 73C189.983 73 220.882 103.899 220.882 142.014Z" fill="url(#paint12_linear_106_3577)" shape-rendering="crispEdges"/>
<path d="M220.517 149.149L218.528 148.945L218.011 153.977L221.829 150.659L220.517 149.149ZM83.3518 223.486H81.3518V225.486H83.3518V223.486ZM83.3518 223.485H85.3518V221.496L83.363 221.485L83.3518 223.485ZM83.0878 136.287L83.1109 138.287L84.932 138.266L85.0811 136.45L83.0878 136.287ZM222.507 149.353C222.755 146.94 222.882 144.492 222.882 142.014H218.882C218.882 144.355 218.762 146.667 218.528 148.945L222.507 149.353ZM248.288 136.775C237.163 136.775 226.991 140.873 219.206 147.639L221.829 150.659C228.915 144.501 238.164 140.775 248.288 140.775V136.775ZM292.643 181.13C292.643 156.634 272.785 136.775 248.288 136.775V140.775C270.576 140.775 288.643 158.843 288.643 181.13H292.643ZM248.288 225.486C272.785 225.486 292.643 205.627 292.643 181.13H288.643C288.643 203.418 270.576 221.486 248.288 221.486V225.486ZM248.288 221.486H83.6379V225.486H248.288V221.486ZM83.601 225.486C83.6079 225.486 83.6146 225.486 83.6207 225.486C83.6269 225.486 83.6324 225.486 83.6379 225.486V221.486C83.631 221.486 83.6242 221.486 83.6182 221.486C83.6119 221.486 83.6064 221.486 83.601 221.486V225.486ZM83.5641 225.486C83.5695 225.486 83.5751 225.486 83.5813 225.486C83.5874 225.486 83.5941 225.486 83.601 225.486V221.486C83.5956 221.486 83.59 221.486 83.5838 221.486C83.5777 221.486 83.571 221.486 83.5641 221.486V225.486ZM83.5641 221.486H83.3518V225.486H83.5641V221.486ZM85.3518 223.486V223.485H81.3518V223.486H85.3518ZM38 179.885C38 204.983 58.2756 225.345 83.3407 225.485L83.363 221.485C60.4971 221.357 42 202.781 42 179.885H38ZM83.0647 134.287C58.1268 134.574 38 154.879 38 179.885H42C42 157.073 60.3614 138.549 83.1109 138.287L83.0647 134.287ZM151.868 71C114.631 71 84.0902 99.6581 81.0945 136.123L85.0811 136.45C87.9077 102.044 116.731 75 151.868 75V71ZM222.882 142.014C222.882 102.794 191.088 71 151.868 71V75C188.879 75 218.882 105.003 218.882 142.014H222.882Z" fill="url(#paint13_linear_106_3577)" mask="url(#path-8-outside-2_106_3577)"/>
</g>
<defs>
<filter id="filter0_bd_106_3577" x="23" y="60" width="284.643" height="184.486" filterUnits="userSpaceOnUse" color-interpolation-filters="sRGB">
<feFlood flood-opacity="0" result="BackgroundImageFix"/>
<feGaussianBlur in="BackgroundImageFix" stdDeviation="5"/>
<feComposite in2="SourceAlpha" operator="in" result="effect1_backgroundBlur_106_3577"/>
<feColorMatrix in="SourceAlpha" type="matrix" values="0 0 0 0 0 0 0 0 0 0 0 0 0 0 0 0 0 0 127 0" result="hardAlpha"/>
<feOffset dy="4"/>
<feGaussianBlur stdDeviation="7.5"/>
<feComposite in2="hardAlpha" operator="out"/>
<feColorMatrix type="matrix" values="0 0 0 0 0 0 0 0 0 0 0 0 0 0 0 0 0 0 0.1 0"/>
<feBlend mode="normal" in2="effect1_backgroundBlur_106_3577" result="effect2_dropShadow_106_3577"/>
<feBlend mode="normal" in="SourceGraphic" in2="effect2_dropShadow_106_3577" result="shape"/>
</filter>
<linearGradient id="paint0_linear_106_3577" x1="136.323" y1="52.566" x2="106.915" y2="146.931" gradientUnits="userSpaceOnUse">
<stop stop-color="#FFEFB8"/>
<stop offset="1" stop-color="#FFD600"/>
</linearGradient>
<linearGradient id="paint1_linear_106_3577" x1="56.6719" y1="-12.7645" x2="164.554" y2="170.827" gradientUnits="userSpaceOnUse">
<stop stop-color="#FFF2AF"/>
<stop offset="1" stop-color="#CEBA00"/>
</linearGradient>
<linearGradient id="paint2_linear_106_3577" x1="34.4476" y1="17.5357" x2="13.8314" y2="51.6387" gradientUnits="userSpaceOnUse">
<stop stop-color="#FFF59F"/>
<stop offset="1" stop-color="#EDD500"/>
</linearGradient>
<linearGradient id="paint3_linear_106_3577" x1="8.37363" y1="-1.58517" x2="46.0738" y2="69.1718" gradientUnits="userSpaceOnUse">
<stop stop-color="#FFF6A6"/>
<stop offset="1" stop-color="#D1BC00"/>
</linearGradient>
<linearGradient id="paint4_linear_106_3577" x1="189.008" y1="67.6332" x2="176.123" y2="89.6629" gradientUnits="userSpaceOnUse">
<stop stop-color="#FFF59F"/>
<stop offset="1" stop-color="#EDD500"/>
</linearGradient>
<linearGradient id="paint5_linear_106_3577" x1="171.897" y1="55.493" x2="195.388" y2="101.062" gradientUnits="userSpaceOnUse">
<stop stop-color="#FFF6A6"/>
<stop offset="1" stop-color="#D1BC00"/>
</linearGradient>
<linearGradient id="paint6_linear_106_3577" x1="235.731" y1="185.857" x2="184.788" y2="235.558" gradientUnits="userSpaceOnUse">
<stop stop-color="#D6E9FF"/>
<stop offset="1" stop-color="#2898FF"/>
</linearGradient>
<linearGradient id="paint7_linear_106_3577" x1="145.902" y1="242.106" x2="167.537" y2="214.14" gradientUnits="userSpaceOnUse">
<stop stop-color="#3981EE"/>
<stop offset="1" stop-color="#92BDFF"/>
</linearGradient>
<linearGradient id="paint8_linear_106_3577" x1="145.902" y1="242.106" x2="167.537" y2="214.14" gradientUnits="userSpaceOnUse">
<stop stop-color="#3981EE"/>
<stop offset="1" stop-color="#92BDFF"/>
</linearGradient>
<linearGradient id="paint9_linear_106_3577" x1="145.902" y1="242.106" x2="167.537" y2="214.14" gradientUnits="userSpaceOnUse">
<stop stop-color="#3981EE"/>
<stop offset="1" stop-color="#92BDFF"/>
</linearGradient>
<linearGradient id="paint10_linear_106_3577" x1="145.902" y1="242.106" x2="167.537" y2="214.14" gradientUnits="userSpaceOnUse">
<stop stop-color="#3981EE"/>
<stop offset="1" stop-color="#92BDFF"/>
</linearGradient>
<linearGradient id="paint11_linear_106_3577" x1="195.603" y1="273.042" x2="160.446" y2="307.343" gradientUnits="userSpaceOnUse">
<stop stop-color="#D6E9FF"/>
<stop offset="1" stop-color="#2898FF"/>
</linearGradient>
<linearGradient id="paint12_linear_106_3577" x1="119.525" y1="88.5" x2="199.025" y2="218" gradientUnits="userSpaceOnUse">
<stop stop-color="#508ABF"/>
<stop offset="1" stop-color="#2073A2" stop-opacity="0.53"/>
</linearGradient>
<linearGradient id="paint13_linear_106_3577" x1="200.525" y1="273.5" x2="122.525" y2="53.5" gradientUnits="userSpaceOnUse">
<stop stop-color="#4195C6"/>
<stop offset="1" stop-color="#5E8398" stop-opacity="0.56"/>
<stop offset="1" stop-color="#AFE2FF" stop-opacity="0.5"/>
</linearGradient>
</defs>
</svg>
