<svg width="285" height="325" viewBox="0 0 285 325" fill="none" xmlns="http://www.w3.org/2000/svg">
<path d="M98.9999 145.783C129.808 145.783 154.783 120.808 154.783 90C154.783 59.1921 129.808 34.2174 98.9999 34.2174C68.192 34.2174 43.2173 59.1921 43.2173 90C43.2173 120.808 68.192 145.783 98.9999 145.783Z" fill="url(#paint0_linear_106_3576)" stroke="url(#paint1_linear_106_3576)" stroke-width="2"/>
<path fill-rule="evenodd" clip-rule="evenodd" d="M98.9999 0C96.2985 0 94.1086 2.18992 94.1086 4.89131V20.5435C94.1086 23.2449 96.2985 25.4348 98.9999 25.4348C101.701 25.4348 103.891 23.2449 103.891 20.5435V4.8913C103.891 2.18991 101.701 0 98.9999 0ZM98.9999 154.565C96.2985 154.565 94.1086 156.755 94.1086 159.457V175.109C94.1086 177.81 96.2985 180 98.9999 180C101.701 180 103.891 177.81 103.891 175.109V159.457C103.891 156.755 101.701 154.565 98.9999 154.565ZM137.318 13.848C138.669 11.5086 141.66 10.707 144 12.0577C146.339 13.4084 147.141 16.3999 145.79 18.7393L137.964 32.2945C136.614 34.634 133.622 35.4355 131.283 34.0849C128.943 32.7342 128.142 29.7427 129.492 27.4032L137.318 13.848ZM66.7173 145.915C64.3779 144.564 61.3864 145.366 60.0357 147.705L52.2096 161.261C50.8589 163.6 51.6605 166.592 53.9999 167.942C56.3394 169.293 59.3309 168.491 60.6816 166.152L68.5077 152.597C69.8584 150.257 69.0568 147.266 66.7173 145.915ZM170.261 43.2096C172.6 41.8589 175.592 42.6605 176.942 45C178.293 47.3394 177.491 50.3309 175.152 51.6816L161.597 59.5077C159.257 60.8584 156.266 60.0568 154.915 57.7174C153.564 55.3779 154.366 52.3864 156.705 51.0357L170.261 43.2096ZM43.0849 122.283C41.7342 119.943 38.7427 119.142 36.4032 120.492L22.848 128.318C20.5086 129.669 19.707 132.66 21.0577 135C22.4084 137.339 25.3999 138.141 27.7394 136.79L41.2945 128.964C43.634 127.614 44.4356 124.622 43.0849 122.283ZM184.109 85.1087C186.81 85.1087 189 87.2986 189 90C189 92.7014 186.81 94.8913 184.109 94.8913H168.457C165.755 94.8913 163.565 92.7014 163.565 90C163.565 87.2986 165.755 85.1087 168.457 85.1087H184.109ZM34.4348 90C34.4348 87.2986 32.2449 85.1087 29.5435 85.1087H13.8913C11.1899 85.1087 9 87.2986 9 90C9 92.7014 11.1899 94.8913 13.8913 94.8913H29.5435C32.2449 94.8913 34.4348 92.7014 34.4348 90ZM175.152 128.318C177.491 129.669 178.293 132.66 176.942 135C175.592 137.339 172.6 138.141 170.261 136.79L156.705 128.964C154.366 127.614 153.564 124.622 154.915 122.283C156.266 119.943 159.257 119.142 161.597 120.492L175.152 128.318ZM43.0849 57.7174C44.4356 55.3779 43.634 52.3864 41.2945 51.0357L27.7393 43.2096C25.3999 41.8589 22.4084 42.6605 21.0577 45C19.707 47.3394 20.5086 50.3309 22.848 51.6816L36.4032 59.5077C38.7427 60.8584 41.7342 60.0568 43.0849 57.7174ZM145.79 161.261C147.141 163.6 146.339 166.592 144 167.942C141.66 169.293 138.669 168.491 137.318 166.152L129.492 152.597C128.142 150.257 128.943 147.266 131.283 145.915C133.622 144.564 136.614 145.366 137.964 147.705L145.79 161.261ZM66.7173 34.0848C69.0568 32.7341 69.8584 29.7426 68.5077 27.4032L60.6816 13.848C59.3309 11.5085 56.3394 10.7069 53.9999 12.0576C51.6605 13.4083 50.8589 16.3998 52.2096 18.7393L60.0357 32.2945C61.3864 34.6339 64.3778 35.4355 66.7173 34.0848Z" fill="url(#paint2_linear_106_3576)"/>
<path fill-rule="evenodd" clip-rule="evenodd" d="M177.461 187C176.628 187 175.952 187.675 175.952 188.509V193.241L172.509 188.893C171.992 188.24 171.043 188.129 170.39 188.647C169.737 189.164 169.627 190.113 170.144 190.766L175.952 198.102V200.873L172.51 196.525C171.992 195.872 171.043 195.762 170.39 196.279C169.737 196.796 169.627 197.745 170.144 198.398L175.952 205.734V218.763L166.297 209.108L165.216 199.813C165.12 198.985 164.371 198.392 163.544 198.489C162.716 198.585 162.123 199.334 162.219 200.161L162.859 205.67L160.9 203.71L159.819 194.416C159.723 193.588 158.974 192.995 158.147 193.092C157.319 193.188 156.726 193.937 156.822 194.764L157.462 200.273L154.559 197.37C153.97 196.781 153.015 196.781 152.425 197.37C151.836 197.959 151.836 198.915 152.425 199.504L155.399 202.477L149.765 201.822C148.937 201.726 148.188 202.319 148.092 203.147C147.996 203.974 148.589 204.723 149.416 204.819L158.836 205.914L160.796 207.874L155.162 207.219C154.334 207.123 153.585 207.716 153.489 208.544C153.393 209.371 153.986 210.12 154.813 210.216L164.233 211.311L173.874 220.952H160.108L152.772 215.144C152.119 214.627 151.17 214.737 150.653 215.39C150.136 216.043 150.246 216.992 150.899 217.51L155.247 220.952H152.476L145.14 215.144C144.486 214.627 143.537 214.737 143.02 215.39C142.503 216.043 142.613 216.992 143.267 217.51L147.615 220.952H143.509C142.675 220.952 142 221.628 142 222.461C142 223.294 142.675 223.97 143.509 223.97H147.713L143.267 227.49C142.613 228.008 142.503 228.957 143.02 229.61C143.537 230.263 144.486 230.373 145.14 229.856L152.574 223.97H155.346L150.899 227.49C150.246 228.008 150.136 228.957 150.653 229.61C151.17 230.263 152.119 230.373 152.772 229.856L160.207 223.97H173.841L164.108 233.703L154.813 234.784C153.985 234.88 153.392 235.629 153.489 236.456C153.585 237.284 154.334 237.877 155.161 237.781L160.67 237.141L158.711 239.1L149.416 240.181C148.588 240.277 147.995 241.026 148.091 241.853C148.188 242.681 148.937 243.274 149.764 243.178L155.273 242.538L152.37 245.441C151.781 246.03 151.781 246.986 152.37 247.575C152.959 248.164 153.914 248.164 154.504 247.575L157.477 244.602L156.822 250.236C156.726 251.063 157.319 251.812 158.147 251.908C158.974 252.005 159.723 251.412 159.819 250.584L160.914 241.164L162.874 239.205L162.219 244.839C162.123 245.666 162.716 246.415 163.544 246.511C164.371 246.608 165.12 246.015 165.216 245.187L166.311 235.767L175.952 226.126V239.892L170.144 247.228C169.627 247.881 169.737 248.83 170.39 249.347C171.043 249.865 171.992 249.754 172.51 249.101L175.952 244.753V247.524L170.144 254.86C169.627 255.514 169.737 256.462 170.39 256.98C171.043 257.497 171.992 257.387 172.51 256.733L175.952 252.385V256.491C175.952 257.325 176.628 258 177.461 258C178.294 258 178.97 257.325 178.97 256.491V252.287L182.49 256.733C183.008 257.387 183.957 257.497 184.61 256.98C185.263 256.462 185.373 255.514 184.856 254.86L178.97 247.426V244.654L182.49 249.101C183.008 249.754 183.957 249.865 184.61 249.347C185.263 248.83 185.373 247.881 184.856 247.228L178.97 239.793V226.048L188.246 235.324L189.341 244.744C189.437 245.572 190.186 246.165 191.014 246.068C191.841 245.972 192.434 245.223 192.338 244.396L191.683 238.762L193.643 240.721L194.738 250.141C194.834 250.969 195.583 251.562 196.411 251.465C197.238 251.369 197.831 250.62 197.735 249.793L197.08 244.159L200.496 247.575C201.086 248.164 202.041 248.164 202.63 247.575C203.219 246.985 203.219 246.03 202.63 245.441L199.284 242.095L204.793 242.735C205.621 242.831 206.37 242.238 206.466 241.41C206.562 240.583 205.969 239.834 205.141 239.738L195.847 238.657L193.887 236.698L199.396 237.338C200.224 237.434 200.973 236.841 201.069 236.013C201.165 235.186 200.572 234.437 199.744 234.341L190.45 233.26L181.159 223.97H194.167L201.601 229.856C202.255 230.373 203.204 230.263 203.721 229.61C204.238 228.957 204.128 228.008 203.475 227.49L199.028 223.97H201.799L209.234 229.856C209.887 230.373 210.836 230.263 211.353 229.61C211.871 228.957 211.76 228.008 211.107 227.49L206.66 223.97H211.491C212.325 223.97 213 223.294 213 222.461C213 221.628 212.325 220.952 211.491 220.952H206.759L211.107 217.51C211.76 216.992 211.871 216.043 211.353 215.39C210.836 214.737 209.887 214.627 209.234 215.144L201.898 220.952H199.126L203.475 217.51C204.128 216.992 204.238 216.043 203.721 215.39C203.204 214.737 202.255 214.627 201.601 215.144L194.265 220.952H181.126L190.324 211.754L199.744 210.659C200.572 210.563 201.165 209.814 201.068 208.987C200.972 208.159 200.223 207.566 199.396 207.662L193.762 208.317L195.721 206.357L205.141 205.262C205.969 205.166 206.562 204.417 206.465 203.59C206.369 202.762 205.62 202.169 204.793 202.265L199.159 202.92L202.575 199.504C203.164 198.915 203.164 197.959 202.575 197.37C201.985 196.781 201.03 196.781 200.441 197.37L197.095 200.716L197.735 195.207C197.831 194.38 197.238 193.631 196.411 193.535C195.583 193.438 194.834 194.031 194.738 194.859L193.658 204.153L191.698 206.113L192.338 200.604C192.434 199.777 191.841 199.028 191.014 198.932C190.186 198.835 189.437 199.428 189.341 200.256L188.261 209.55L178.97 218.841V205.833L184.856 198.398C185.373 197.745 185.263 196.796 184.61 196.279C183.957 195.762 183.008 195.872 182.49 196.525L178.97 200.972V198.2L184.856 190.766C185.373 190.113 185.263 189.164 184.61 188.647C183.957 188.129 183.008 188.24 182.49 188.893L178.97 193.339V188.509C178.97 187.675 178.294 187 177.461 187Z" fill="url(#paint3_linear_106_3576)"/>
<path d="M42.3735 281.392C43.4831 277.267 47.7284 274.816 51.8557 275.918C55.983 277.02 58.4293 281.257 57.3196 285.382L50.2134 311.8C49.1038 315.925 44.8585 318.376 40.7312 317.274C36.604 316.173 34.1577 311.936 35.2673 307.81L42.3735 281.392Z" fill="url(#paint4_linear_106_3576)"/>
<path d="M92.5139 281.392C93.6235 277.267 97.8688 274.816 101.996 275.918C106.123 277.02 108.57 281.257 107.46 285.382L100.354 311.8C99.2442 315.925 94.9989 318.376 90.8716 317.274C86.7444 316.173 84.2981 311.936 85.4077 307.81L92.5139 281.392Z" fill="url(#paint5_linear_106_3576)"/>
<path d="M69.8817 219.738C70.9913 215.613 75.2367 213.162 79.364 214.264C83.4912 215.365 85.9375 219.602 84.8279 223.728L77.7217 250.146C76.6121 254.271 72.3667 256.722 68.2395 255.62C64.1122 254.519 61.6659 250.281 62.7755 246.156L69.8817 219.738Z" fill="url(#paint6_linear_106_3576)"/>
<path d="M120.022 219.738C121.132 215.613 125.377 213.162 129.504 214.264C133.632 215.365 136.078 219.602 134.968 223.728L127.862 250.146C126.752 254.271 122.507 256.722 118.38 255.62C114.253 254.519 111.806 250.281 112.916 246.156L120.022 219.738Z" fill="url(#paint7_linear_106_3576)"/>
<path fill-rule="evenodd" clip-rule="evenodd" d="M145.473 276C144.898 276 144.432 276.466 144.432 277.041V280.307L142.056 277.306C141.699 276.855 141.044 276.779 140.593 277.136C140.142 277.493 140.066 278.148 140.423 278.599L144.432 283.662V285.575L142.056 282.574C141.699 282.123 141.044 282.047 140.593 282.404C140.142 282.761 140.066 283.416 140.423 283.867L144.432 288.929V297.921L137.768 291.257L137.023 284.843C136.956 284.272 136.439 283.862 135.868 283.929C135.297 283.995 134.888 284.512 134.954 285.083L135.396 288.885L134.043 287.533L133.298 281.118C133.232 280.547 132.715 280.138 132.143 280.204C131.572 280.27 131.163 280.787 131.229 281.359L131.671 285.16L129.668 283.157C129.261 282.75 128.602 282.75 128.195 283.157C127.788 283.563 127.788 284.223 128.195 284.629L130.247 286.681L126.359 286.229C125.787 286.163 125.271 286.572 125.204 287.143C125.138 287.715 125.547 288.232 126.118 288.298L132.619 289.053L133.972 290.406L130.083 289.954C129.512 289.888 128.995 290.297 128.929 290.868C128.862 291.439 129.272 291.956 129.843 292.023L136.344 292.778L142.997 299.432H133.497L128.434 295.423C127.983 295.066 127.329 295.142 126.972 295.593C126.615 296.044 126.691 296.699 127.142 297.056L130.142 299.432H128.23L123.167 295.423C122.716 295.066 122.061 295.142 121.704 295.593C121.347 296.044 121.423 296.699 121.874 297.056L124.875 299.432H122.041C121.466 299.432 121 299.898 121 300.473C121 301.048 121.466 301.514 122.041 301.514H124.943L121.874 303.944C121.423 304.301 121.347 304.956 121.704 305.407C122.061 305.858 122.716 305.934 123.167 305.577L128.298 301.514H130.21L127.142 303.944C126.691 304.301 126.615 304.956 126.972 305.407C127.329 305.858 127.983 305.934 128.434 305.577L133.565 301.514H142.975L136.257 308.232L129.843 308.977C129.272 309.044 128.862 309.561 128.929 310.132C128.995 310.703 129.512 311.112 130.083 311.046L133.885 310.604L132.533 311.957L126.118 312.702C125.547 312.768 125.138 313.285 125.204 313.857C125.27 314.428 125.787 314.837 126.358 314.771L130.16 314.329L128.157 316.333C127.75 316.739 127.75 317.398 128.157 317.805C128.563 318.212 129.223 318.212 129.629 317.805L131.681 315.753L131.229 319.641C131.163 320.213 131.572 320.73 132.143 320.796C132.715 320.862 133.231 320.453 133.298 319.882L134.053 313.381L135.406 312.029L134.954 315.917C134.888 316.488 135.297 317.005 135.868 317.071C136.439 317.138 136.956 316.728 137.023 316.157L137.778 309.656L144.432 303.003V312.503L140.423 317.566C140.066 318.017 140.142 318.671 140.593 319.028C141.044 319.385 141.699 319.309 142.056 318.858L144.432 315.858V317.77L140.423 322.833C140.066 323.284 140.142 323.939 140.593 324.296C141.044 324.653 141.699 324.577 142.056 324.126L144.432 321.125V323.959C144.432 324.534 144.898 325 145.473 325C146.048 325 146.514 324.534 146.514 323.959V321.057L148.944 324.126C149.301 324.577 149.956 324.653 150.407 324.296C150.858 323.939 150.934 323.284 150.577 322.833L146.514 317.702V315.79L148.944 318.858C149.301 319.309 149.956 319.385 150.407 319.028C150.858 318.671 150.934 318.017 150.577 317.566L146.514 312.435V302.949L152.916 309.351L153.672 315.851C153.738 316.423 154.255 316.832 154.826 316.766C155.398 316.699 155.807 316.182 155.74 315.611L155.289 311.723L156.641 313.075L157.397 319.576C157.463 320.147 157.98 320.557 158.551 320.49C159.122 320.424 159.531 319.907 159.465 319.336L159.013 315.448L161.371 317.805C161.777 318.212 162.437 318.212 162.843 317.805C163.25 317.398 163.25 316.739 162.843 316.333L160.534 314.023L164.336 314.465C164.907 314.531 165.424 314.122 165.49 313.551C165.557 312.98 165.148 312.463 164.576 312.396L158.162 311.651L156.809 310.298L160.611 310.74C161.182 310.807 161.699 310.397 161.766 309.826C161.832 309.255 161.423 308.738 160.852 308.672L154.437 307.926L148.025 301.514H157.002L162.133 305.577C162.584 305.934 163.239 305.858 163.596 305.407C163.953 304.956 163.877 304.301 163.426 303.944L160.357 301.514H162.27L167.401 305.577C167.852 305.934 168.507 305.858 168.864 305.407C169.221 304.956 169.144 304.301 168.694 303.944L165.625 301.514H168.959C169.534 301.514 170 301.048 170 300.473C170 299.898 169.534 299.432 168.959 299.432H165.693L168.694 297.056C169.144 296.699 169.221 296.044 168.864 295.593C168.507 295.142 167.852 295.066 167.401 295.423L162.338 299.432H160.425L163.426 297.056C163.877 296.699 163.953 296.044 163.596 295.593C163.239 295.142 162.584 295.066 162.133 295.423L157.07 299.432H148.003L154.351 293.084L160.851 292.328C161.423 292.262 161.832 291.745 161.766 291.174C161.699 290.603 161.182 290.193 160.611 290.26L156.723 290.712L158.075 289.359L164.576 288.604C165.147 288.537 165.557 288.02 165.49 287.449C165.424 286.878 164.907 286.469 164.336 286.535L160.448 286.987L162.805 284.629C163.212 284.223 163.212 283.563 162.805 283.157C162.398 282.75 161.739 282.75 161.332 283.157L159.023 285.466L159.465 281.664C159.531 281.093 159.122 280.576 158.551 280.51C157.98 280.443 157.463 280.853 157.396 281.424L156.651 287.838L155.299 289.191L155.74 285.389C155.807 284.818 155.397 284.301 154.826 284.234C154.255 284.168 153.738 284.577 153.672 285.149L152.926 291.563L146.514 297.975V288.997L150.577 283.867C150.934 283.416 150.858 282.761 150.407 282.404C149.956 282.047 149.301 282.123 148.944 282.574L146.514 285.643V283.73L150.577 278.599C150.934 278.148 150.858 277.493 150.407 277.136C149.956 276.779 149.301 276.855 148.944 277.306L146.514 280.375V277.041C146.514 276.466 146.048 276 145.473 276Z" fill="url(#paint8_linear_106_3576)"/>
<g filter="url(#filter0_bd_106_3576)">
<mask id="path-6-outside-1_106_3576" maskUnits="userSpaceOnUse" x="15" y="78" width="255" height="155" fill="black">
<rect fill="white" x="15" y="78" width="255" height="155"/>
<path fill-rule="evenodd" clip-rule="evenodd" d="M197.882 149.014C197.882 151.423 197.758 153.804 197.517 156.149C204.953 149.687 214.664 145.775 225.288 145.775C248.68 145.775 267.643 164.738 267.643 188.13C267.643 211.523 248.68 230.486 225.288 230.486H60.6379C60.6256 230.486 60.6133 230.486 60.601 230.486C60.5887 230.486 60.5764 230.486 60.5641 230.486H60.3518V230.485C36.3863 230.351 17 210.882 17 186.885C17 162.976 36.2441 143.562 60.0878 143.287C62.999 107.851 92.6809 80 128.868 80C166.983 80 197.882 110.899 197.882 149.014Z"/>
</mask>
<path fill-rule="evenodd" clip-rule="evenodd" d="M197.882 149.014C197.882 151.423 197.758 153.804 197.517 156.149C204.953 149.687 214.664 145.775 225.288 145.775C248.68 145.775 267.643 164.738 267.643 188.13C267.643 211.523 248.68 230.486 225.288 230.486H60.6379C60.6256 230.486 60.6133 230.486 60.601 230.486C60.5887 230.486 60.5764 230.486 60.5641 230.486H60.3518V230.485C36.3863 230.351 17 210.882 17 186.885C17 162.976 36.2441 143.562 60.0878 143.287C62.999 107.851 92.6809 80 128.868 80C166.983 80 197.882 110.899 197.882 149.014Z" fill="url(#paint9_linear_106_3576)" shape-rendering="crispEdges"/>
<path d="M197.517 156.149L195.528 155.945L195.011 160.977L198.829 157.659L197.517 156.149ZM60.3518 230.486H58.3518V232.486H60.3518V230.486ZM60.3518 230.485H62.3518V228.496L60.363 228.485L60.3518 230.485ZM60.0878 143.287L60.1109 145.287L61.932 145.266L62.0811 143.45L60.0878 143.287ZM199.507 156.353C199.755 153.94 199.882 151.492 199.882 149.014H195.882C195.882 151.355 195.762 153.667 195.528 155.945L199.507 156.353ZM225.288 143.775C214.163 143.775 203.991 147.873 196.206 154.639L198.829 157.659C205.915 151.501 215.164 147.775 225.288 147.775V143.775ZM269.643 188.13C269.643 163.634 249.785 143.775 225.288 143.775V147.775C247.576 147.775 265.643 165.843 265.643 188.13H269.643ZM225.288 232.486C249.785 232.486 269.643 212.627 269.643 188.13H265.643C265.643 210.418 247.576 228.486 225.288 228.486V232.486ZM225.288 228.486H60.6379V232.486H225.288V228.486ZM60.601 232.486C60.6079 232.486 60.6146 232.486 60.6207 232.486C60.6269 232.486 60.6324 232.486 60.6379 232.486V228.486C60.631 228.486 60.6242 228.486 60.6182 228.486C60.6119 228.486 60.6064 228.486 60.601 228.486V232.486ZM60.5641 232.486C60.5695 232.486 60.5751 232.486 60.5813 232.486C60.5874 232.486 60.5941 232.486 60.601 232.486V228.486C60.5956 228.486 60.59 228.486 60.5838 228.486C60.5777 228.486 60.571 228.486 60.5641 228.486V232.486ZM60.5641 228.486H60.3518V232.486H60.5641V228.486ZM62.3518 230.486V230.485H58.3518V230.486H62.3518ZM15 186.885C15 211.983 35.2756 232.345 60.3407 232.485L60.363 228.485C37.4971 228.357 19 209.781 19 186.885H15ZM60.0647 141.287C35.1268 141.574 15 161.879 15 186.885H19C19 164.073 37.3614 145.549 60.1109 145.287L60.0647 141.287ZM128.868 78C91.6312 78 61.0902 106.658 58.0945 143.123L62.0811 143.45C64.9077 109.044 93.7306 82 128.868 82V78ZM199.882 149.014C199.882 109.794 168.088 78 128.868 78V82C165.879 82 195.882 112.003 195.882 149.014H199.882Z" fill="url(#paint10_linear_106_3576)" mask="url(#path-6-outside-1_106_3576)"/>
</g>
<defs>
<filter id="filter0_bd_106_3576" x="0" y="67" width="284.643" height="184.486" filterUnits="userSpaceOnUse" color-interpolation-filters="sRGB">
<feFlood flood-opacity="0" result="BackgroundImageFix"/>
<feGaussianBlur in="BackgroundImageFix" stdDeviation="5"/>
<feComposite in2="SourceAlpha" operator="in" result="effect1_backgroundBlur_106_3576"/>
<feColorMatrix in="SourceAlpha" type="matrix" values="0 0 0 0 0 0 0 0 0 0 0 0 0 0 0 0 0 0 127 0" result="hardAlpha"/>
<feOffset dy="4"/>
<feGaussianBlur stdDeviation="7.5"/>
<feComposite in2="hardAlpha" operator="out"/>
<feColorMatrix type="matrix" values="0 0 0 0 0 0 0 0 0 0 0 0 0 0 0 0 0 0 0.1 0"/>
<feBlend mode="normal" in2="effect1_backgroundBlur_106_3576" result="effect2_dropShadow_106_3576"/>
<feBlend mode="normal" in="SourceGraphic" in2="effect2_dropShadow_106_3576" result="shape"/>
</filter>
<linearGradient id="paint0_linear_106_3576" x1="129.815" y1="43.0435" x2="80.0925" y2="145.21" gradientUnits="userSpaceOnUse">
<stop offset="0.182844" stop-color="#FFE600"/>
<stop offset="0.980542" stop-color="#F09000"/>
</linearGradient>
<linearGradient id="paint1_linear_106_3576" x1="71.0169" y1="22.6891" x2="148.16" y2="207.983" gradientUnits="userSpaceOnUse">
<stop stop-color="#FFE600"/>
<stop offset="1" stop-color="#9C8D00"/>
</linearGradient>
<linearGradient id="paint2_linear_106_3576" x1="165.032" y1="23.4782" x2="31.4999" y2="180" gradientUnits="userSpaceOnUse">
<stop stop-color="#FFE600"/>
<stop offset="1" stop-color="#AA9900"/>
</linearGradient>
<linearGradient id="paint3_linear_106_3576" x1="203.731" y1="192.857" x2="152.788" y2="242.558" gradientUnits="userSpaceOnUse">
<stop stop-color="#D6E9FF"/>
<stop offset="1" stop-color="#2898FF"/>
</linearGradient>
<linearGradient id="paint4_linear_106_3576" x1="113.902" y1="249.106" x2="135.537" y2="221.14" gradientUnits="userSpaceOnUse">
<stop stop-color="#3981EE"/>
<stop offset="1" stop-color="#92BDFF"/>
</linearGradient>
<linearGradient id="paint5_linear_106_3576" x1="113.902" y1="249.106" x2="135.537" y2="221.14" gradientUnits="userSpaceOnUse">
<stop stop-color="#3981EE"/>
<stop offset="1" stop-color="#92BDFF"/>
</linearGradient>
<linearGradient id="paint6_linear_106_3576" x1="113.902" y1="249.106" x2="135.537" y2="221.14" gradientUnits="userSpaceOnUse">
<stop stop-color="#3981EE"/>
<stop offset="1" stop-color="#92BDFF"/>
</linearGradient>
<linearGradient id="paint7_linear_106_3576" x1="113.902" y1="249.106" x2="135.537" y2="221.14" gradientUnits="userSpaceOnUse">
<stop stop-color="#3981EE"/>
<stop offset="1" stop-color="#92BDFF"/>
</linearGradient>
<linearGradient id="paint8_linear_106_3576" x1="163.603" y1="280.042" x2="128.446" y2="314.343" gradientUnits="userSpaceOnUse">
<stop stop-color="#D6E9FF"/>
<stop offset="1" stop-color="#2898FF"/>
</linearGradient>
<linearGradient id="paint9_linear_106_3576" x1="94.9027" y1="79.3724" x2="155.193" y2="231.113" gradientUnits="userSpaceOnUse">
<stop stop-color="white"/>
<stop offset="0.708333" stop-color="#9DDCFF" stop-opacity="0.69"/>
</linearGradient>
<linearGradient id="paint10_linear_106_3576" x1="134.193" y1="27.8889" x2="217.515" y2="292.081" gradientUnits="userSpaceOnUse">
<stop stop-color="white"/>
<stop offset="0.713542" stop-color="#85C6EC" stop-opacity="0.71"/>
</linearGradient>
</defs>
</svg>
