<svg width="449" height="441" viewBox="0 0 449 441" fill="none" xmlns="http://www.w3.org/2000/svg">
<path d="M52 315V298.828H59.5V256.547H52V240.375H88.9844V256.547H83.3125V274.078L101.688 256.547H96.0156V240.375H126.859V256.547H120.531L101.969 273.656H103.75C109.438 273.656 113.672 275.047 116.453 277.828C119.234 280.578 120.688 284.625 120.812 289.969L120.906 293.859C120.969 295.516 121.328 296.766 121.984 297.609C122.672 298.422 123.828 298.828 125.453 298.828H130.422V315H114.109C108.141 315 103.719 313.625 100.844 310.875C98 308.094 96.5469 304.031 96.4844 298.688L96.3906 292.453C96.2969 287.453 93.9844 284.953 89.4531 284.953H83.3125V298.828H89.6406V315H52ZM150.859 315.844C147.641 315.844 144.766 315.203 142.234 313.922C139.734 312.609 137.766 310.812 136.328 308.531C134.922 306.25 134.219 303.625 134.219 300.656C134.219 296.031 136 292.344 139.562 289.594C143.125 286.844 147.875 285.469 153.812 285.469C155.875 285.469 157.844 285.594 159.719 285.844C161.594 286.094 163.5 286.516 165.438 287.109V286.078C165.438 283.234 164.562 281.172 162.812 279.891C161.094 278.609 158.328 277.969 154.516 277.969C151.766 277.969 148.984 278.328 146.172 279.047C143.359 279.766 140.797 280.766 138.484 282.047L137.219 281.484V267.797C140.5 266.516 144.219 265.547 148.375 264.891C152.562 264.234 156.766 263.906 160.984 263.906C170.328 263.906 177.156 265.469 181.469 268.594C185.781 271.719 187.938 276.734 187.938 283.641V300.938H194.031V315H168.438L166.141 307.641C164.672 310.203 162.578 312.219 159.859 313.688C157.172 315.125 154.172 315.844 150.859 315.844ZM160.656 303.844C161.5 303.844 162.375 303.703 163.281 303.422C164.219 303.109 164.938 302.703 165.438 302.203V294.375C164.656 294.031 163.859 293.797 163.047 293.672C162.266 293.547 161.531 293.484 160.844 293.484C159.25 293.484 157.906 293.953 156.812 294.891C155.75 295.828 155.219 297.078 155.219 298.641C155.219 300.234 155.719 301.5 156.719 302.438C157.719 303.375 159.031 303.844 160.656 303.844ZM200.266 315V300.938H207.062V279.422H200.266V266.625L229.094 263.859V270C231.031 268.031 233.438 266.516 236.312 265.453C239.188 264.391 242.25 263.859 245.5 263.859C252.062 263.859 256.625 266.141 259.188 270.703C261.594 268.516 264.328 266.828 267.391 265.641C270.484 264.453 273.578 263.859 276.672 263.859C282.672 263.859 287.016 265.438 289.703 268.594C292.422 271.75 293.781 276.531 293.781 282.938V300.938H300.344V315H271.281V282.938C271.281 281.188 270.891 279.922 270.109 279.141C269.359 278.328 268.406 277.922 267.25 277.922C266.312 277.922 265.328 278.203 264.297 278.766C263.266 279.328 262.391 280.141 261.672 281.203V300.938H265.891V315H239.172V282.938C239.172 281.188 238.781 279.922 238 279.141C237.25 278.328 236.297 277.922 235.141 277.922C234.203 277.922 233.219 278.203 232.188 278.766C231.156 279.328 230.281 280.141 229.562 281.203V300.938H233.781V315H200.266ZM334.797 315.844C325.516 315.844 318.234 313.516 312.953 308.859C307.703 304.172 305.078 297.688 305.078 289.406C305.078 284.188 306.219 279.672 308.5 275.859C310.812 272.047 314.031 269.109 318.156 267.047C322.281 264.953 327.078 263.906 332.547 263.906C337.891 263.906 342.469 264.891 346.281 266.859C350.094 268.797 353 271.516 355 275.016C357.031 278.484 358.047 282.5 358.047 287.062C358.047 288.125 358 289.156 357.906 290.156C357.812 291.125 357.703 292.016 357.578 292.828H327.438C327.969 296.016 329.406 298.312 331.75 299.719C334.125 301.094 337.016 301.781 340.422 301.781C343.297 301.781 346.031 301.281 348.625 300.281C351.25 299.25 353.469 297.969 355.281 296.438L356.547 297V310.453C355.047 311.484 353.109 312.406 350.734 313.219C348.359 314.031 345.781 314.672 343 315.141C340.25 315.609 337.516 315.844 334.797 315.844ZM333.766 275.438C331.672 275.438 330.094 276.25 329.031 277.875C327.969 279.5 327.375 281.766 327.25 284.672H340.281C340.156 281.766 339.562 279.5 338.5 277.875C337.469 276.25 335.891 275.438 333.766 275.438ZM362.031 315V300.938H369.297V257.719H362.031V244.922L391.797 241.875V300.938H399.062V315H362.031Z" fill="#F34F29"/>
<path d="M15.5 259C23.1534 257.63 34.0983 255.859 47.5407 253.787C37.7424 256.097 27.0772 257.872 15.5 259Z" fill="white"/>
<path d="M56.5486 167.709C152.975 58.915 199.845 241.043 15.5 259C86.8734 246.226 444.5 198.5 444.5 198.5M271.5 69.5L315.5 261" stroke="white" stroke-width="6" stroke-linecap="round"/>
<path d="M322.903 270.615C320.657 270.665 318.591 271.316 316.51 272.134C315.249 272.63 314.189 273.24 313.244 274.221C312.741 274.743 312.147 275.36 312.147 276.132C312.147 277.172 313.199 278.284 314.202 278.496C316.301 278.939 318.734 278.601 320.797 278.181C325.924 277.137 330.968 275.072 335.827 273.187C338.603 272.111 341.288 270.854 344.024 269.688C345.368 269.115 346.804 268.405 348.235 268.055C348.5 267.991 349.037 267.907 348.62 268.295C347.363 269.464 345.645 270.008 344.074 270.59C331.874 275.109 319.684 279.795 308.162 285.885C305.85 287.107 303.646 288.481 301.662 290.191C301.338 290.471 301.08 290.643 301 291.042" stroke="white" stroke-width="6" stroke-linecap="round"/>
<path d="M99 195C110.499 207.419 118.951 222.177 129.667 235.222C133.253 239.589 137.449 242.898 140 248" stroke="white" stroke-width="6" stroke-linecap="round"/>
<path d="M43.266 199.439C42.0324 199.285 41.871 197.393 42.4882 196.439C44.0536 194.02 53.2911 195.349 55.5437 195.495C58.9859 195.717 59.266 196.924 59.266 199.939C59.266 205.605 55.1314 207.907 51.0437 210.884C48.2692 212.904 32.4477 223.548 40.0437 228.106C44.2832 230.65 48.0388 233.936 52.0437 236.828C54.0075 238.246 53.266 241.282 53.266 243.439" stroke="white" stroke-width="6" stroke-linecap="round"/>
</svg>
